<mxfile host="app.diagrams.net" modified="2023-08-02T05:07:41.091Z" agent="Mozilla/5.0 (Macintosh; Intel Mac OS X 10.15; rv:109.0) Gecko/20100101 Firefox/116.0" etag="ui80t9fPR_WOCZBpEpPx" version="21.6.6" type="github">
  <diagram id="C5RBs43oDa-KdzZeNtuy" name="Page-1">
    <mxGraphModel dx="1781" dy="1811" grid="1" gridSize="10" guides="1" tooltips="1" connect="1" arrows="1" fold="1" page="1" pageScale="1" pageWidth="827" pageHeight="1169" math="0" shadow="0">
      <root>
        <mxCell id="WIyWlLk6GJQsqaUBKTNV-0" />
        <mxCell id="WIyWlLk6GJQsqaUBKTNV-1" parent="WIyWlLk6GJQsqaUBKTNV-0" />
        <mxCell id="djjdJkId5ODGhI9gOUh_-20" style="edgeStyle=orthogonalEdgeStyle;rounded=0;orthogonalLoop=1;jettySize=auto;html=1;" edge="1" parent="WIyWlLk6GJQsqaUBKTNV-1" source="djjdJkId5ODGhI9gOUh_-0" target="djjdJkId5ODGhI9gOUh_-19">
          <mxGeometry relative="1" as="geometry" />
        </mxCell>
        <mxCell id="djjdJkId5ODGhI9gOUh_-0" value="&lt;div&gt;Start&lt;/div&gt;" style="ellipse;whiteSpace=wrap;html=1;" vertex="1" parent="WIyWlLk6GJQsqaUBKTNV-1">
          <mxGeometry x="95" y="-10" width="120" height="80" as="geometry" />
        </mxCell>
        <mxCell id="djjdJkId5ODGhI9gOUh_-5" style="edgeStyle=orthogonalEdgeStyle;rounded=0;orthogonalLoop=1;jettySize=auto;html=1;" edge="1" parent="WIyWlLk6GJQsqaUBKTNV-1" source="djjdJkId5ODGhI9gOUh_-1" target="djjdJkId5ODGhI9gOUh_-4">
          <mxGeometry relative="1" as="geometry" />
        </mxCell>
        <mxCell id="djjdJkId5ODGhI9gOUh_-1" value="&lt;div&gt;Input Drink Choice&lt;/div&gt;" style="shape=parallelogram;perimeter=parallelogramPerimeter;whiteSpace=wrap;html=1;fixedSize=1;" vertex="1" parent="WIyWlLk6GJQsqaUBKTNV-1">
          <mxGeometry x="40" y="230" width="230" height="60" as="geometry" />
        </mxCell>
        <mxCell id="djjdJkId5ODGhI9gOUh_-27" style="edgeStyle=orthogonalEdgeStyle;rounded=0;orthogonalLoop=1;jettySize=auto;html=1;entryX=0.5;entryY=0;entryDx=0;entryDy=0;" edge="1" parent="WIyWlLk6GJQsqaUBKTNV-1" source="djjdJkId5ODGhI9gOUh_-4" target="djjdJkId5ODGhI9gOUh_-6">
          <mxGeometry relative="1" as="geometry" />
        </mxCell>
        <mxCell id="djjdJkId5ODGhI9gOUh_-4" value="&lt;div&gt;Input Drink Size&lt;/div&gt;" style="shape=parallelogram;perimeter=parallelogramPerimeter;whiteSpace=wrap;html=1;fixedSize=1;" vertex="1" parent="WIyWlLk6GJQsqaUBKTNV-1">
          <mxGeometry x="40" y="350" width="210" height="60" as="geometry" />
        </mxCell>
        <mxCell id="djjdJkId5ODGhI9gOUh_-28" style="edgeStyle=orthogonalEdgeStyle;rounded=0;orthogonalLoop=1;jettySize=auto;html=1;" edge="1" parent="WIyWlLk6GJQsqaUBKTNV-1" source="djjdJkId5ODGhI9gOUh_-6">
          <mxGeometry relative="1" as="geometry">
            <mxPoint x="540" y="540" as="targetPoint" />
          </mxGeometry>
        </mxCell>
        <mxCell id="djjdJkId5ODGhI9gOUh_-31" value="&lt;div&gt;False&lt;/div&gt;" style="edgeLabel;html=1;align=center;verticalAlign=middle;resizable=0;points=[];" vertex="1" connectable="0" parent="djjdJkId5ODGhI9gOUh_-28">
          <mxGeometry x="-0.6126" relative="1" as="geometry">
            <mxPoint as="offset" />
          </mxGeometry>
        </mxCell>
        <mxCell id="djjdJkId5ODGhI9gOUh_-32" style="edgeStyle=orthogonalEdgeStyle;rounded=0;orthogonalLoop=1;jettySize=auto;html=1;entryX=1;entryY=0.5;entryDx=0;entryDy=0;" edge="1" parent="WIyWlLk6GJQsqaUBKTNV-1" source="djjdJkId5ODGhI9gOUh_-6" target="djjdJkId5ODGhI9gOUh_-14">
          <mxGeometry relative="1" as="geometry" />
        </mxCell>
        <mxCell id="djjdJkId5ODGhI9gOUh_-33" value="True" style="edgeLabel;html=1;align=center;verticalAlign=middle;resizable=0;points=[];" vertex="1" connectable="0" parent="djjdJkId5ODGhI9gOUh_-32">
          <mxGeometry x="0.2913" y="2" relative="1" as="geometry">
            <mxPoint as="offset" />
          </mxGeometry>
        </mxCell>
        <mxCell id="djjdJkId5ODGhI9gOUh_-6" value="&lt;div&gt;Sufficient&amp;nbsp;&lt;/div&gt;&lt;div&gt;Ingredients for&amp;nbsp;&lt;/div&gt;&lt;div&gt;choices?&lt;/div&gt;" style="rhombus;whiteSpace=wrap;html=1;" vertex="1" parent="WIyWlLk6GJQsqaUBKTNV-1">
          <mxGeometry x="284" y="400" width="130" height="120" as="geometry" />
        </mxCell>
        <mxCell id="djjdJkId5ODGhI9gOUh_-18" style="edgeStyle=orthogonalEdgeStyle;rounded=0;orthogonalLoop=1;jettySize=auto;html=1;" edge="1" parent="WIyWlLk6GJQsqaUBKTNV-1" source="djjdJkId5ODGhI9gOUh_-11" target="djjdJkId5ODGhI9gOUh_-17">
          <mxGeometry relative="1" as="geometry" />
        </mxCell>
        <mxCell id="djjdJkId5ODGhI9gOUh_-11" value="Display Error" style="shape=parallelogram;perimeter=parallelogramPerimeter;whiteSpace=wrap;html=1;fixedSize=1;" vertex="1" parent="WIyWlLk6GJQsqaUBKTNV-1">
          <mxGeometry x="410" y="550" width="230" height="60" as="geometry" />
        </mxCell>
        <mxCell id="djjdJkId5ODGhI9gOUh_-22" style="edgeStyle=orthogonalEdgeStyle;rounded=0;orthogonalLoop=1;jettySize=auto;html=1;" edge="1" parent="WIyWlLk6GJQsqaUBKTNV-1" source="djjdJkId5ODGhI9gOUh_-14" target="djjdJkId5ODGhI9gOUh_-19">
          <mxGeometry relative="1" as="geometry">
            <mxPoint x="250" y="130" as="targetPoint" />
            <Array as="points">
              <mxPoint x="-35" y="110" />
              <mxPoint x="60" y="110" />
              <mxPoint x="60" y="90" />
              <mxPoint x="240" y="90" />
              <mxPoint x="240" y="130" />
            </Array>
          </mxGeometry>
        </mxCell>
        <mxCell id="djjdJkId5ODGhI9gOUh_-23" value="&lt;div&gt;true&lt;/div&gt;" style="edgeLabel;html=1;align=center;verticalAlign=middle;resizable=0;points=[];" vertex="1" connectable="0" parent="djjdJkId5ODGhI9gOUh_-22">
          <mxGeometry x="-0.4669" y="-3" relative="1" as="geometry">
            <mxPoint as="offset" />
          </mxGeometry>
        </mxCell>
        <mxCell id="djjdJkId5ODGhI9gOUh_-14" value="&lt;div&gt;Display Cost&lt;/div&gt;&lt;div&gt;&amp;nbsp;and Ingredients used&lt;/div&gt;&lt;div&gt;Subtract Ingredients from total&lt;/div&gt;" style="shape=parallelogram;perimeter=parallelogramPerimeter;whiteSpace=wrap;html=1;fixedSize=1;" vertex="1" parent="WIyWlLk6GJQsqaUBKTNV-1">
          <mxGeometry x="-150" y="440" width="200" height="60" as="geometry" />
        </mxCell>
        <mxCell id="djjdJkId5ODGhI9gOUh_-17" value="End" style="ellipse;whiteSpace=wrap;html=1;" vertex="1" parent="WIyWlLk6GJQsqaUBKTNV-1">
          <mxGeometry x="460" y="650" width="120" height="80" as="geometry" />
        </mxCell>
        <mxCell id="djjdJkId5ODGhI9gOUh_-21" style="edgeStyle=orthogonalEdgeStyle;rounded=0;orthogonalLoop=1;jettySize=auto;html=1;" edge="1" parent="WIyWlLk6GJQsqaUBKTNV-1" source="djjdJkId5ODGhI9gOUh_-19" target="djjdJkId5ODGhI9gOUh_-1">
          <mxGeometry relative="1" as="geometry" />
        </mxCell>
        <mxCell id="djjdJkId5ODGhI9gOUh_-24" value="&lt;div&gt;True&lt;/div&gt;" style="edgeLabel;html=1;align=center;verticalAlign=middle;resizable=0;points=[];" vertex="1" connectable="0" parent="djjdJkId5ODGhI9gOUh_-21">
          <mxGeometry x="-0.44" y="5" relative="1" as="geometry">
            <mxPoint as="offset" />
          </mxGeometry>
        </mxCell>
        <mxCell id="djjdJkId5ODGhI9gOUh_-29" style="edgeStyle=orthogonalEdgeStyle;rounded=0;orthogonalLoop=1;jettySize=auto;html=1;" edge="1" parent="WIyWlLk6GJQsqaUBKTNV-1" source="djjdJkId5ODGhI9gOUh_-19">
          <mxGeometry relative="1" as="geometry">
            <mxPoint x="540" y="460" as="targetPoint" />
          </mxGeometry>
        </mxCell>
        <mxCell id="djjdJkId5ODGhI9gOUh_-30" value="&lt;div&gt;False&lt;/div&gt;" style="edgeLabel;html=1;align=center;verticalAlign=middle;resizable=0;points=[];" vertex="1" connectable="0" parent="djjdJkId5ODGhI9gOUh_-29">
          <mxGeometry x="-0.0035" y="4" relative="1" as="geometry">
            <mxPoint as="offset" />
          </mxGeometry>
        </mxCell>
        <mxCell id="djjdJkId5ODGhI9gOUh_-19" value="Are Milk &amp;amp; Coffee &amp;gt; 0" style="rhombus;whiteSpace=wrap;html=1;" vertex="1" parent="WIyWlLk6GJQsqaUBKTNV-1">
          <mxGeometry x="270" y="60" width="170" height="140" as="geometry" />
        </mxCell>
      </root>
    </mxGraphModel>
  </diagram>
</mxfile>
